# xmcd
#
# Track frame offsets:
#	150
#	24792
#	42986
#	60519
#	78994
#	96646
#	116500
#	137602
#	158686
#	175511
#	193206
#	216590
#	232891
#	247433
#	265593
#	280458
#	295839
#	313999
#
# Disc length: 4452
#
# Revision: 3
# Processed by: cddbd v1.5.1PL0 Copyright (c) Steve Scherf et al.
# Submitted via: dBpowerAMP V4.0
# Normalized: r2:DSETVAR1
#
DISCID=09116212
DTITLE=Various Artist - The  R&B Collecftion
DYEAR=2004
DGENRE=R&B
TTITLE0=Jodeci - All My Life
TTITLE1=Boys II Men - I'll Make Love To You
TTITLE2=Zhane - Groove Thang
TTITLE3=Damage - Ghetto Romance
TTITLE4=Dove Shack - Summertime In The LBC
TTITLE5=Anita Baker - Sweet Love
TTITLE6=Ralph Tresvant - Sensitivity
TTITLE7=Blackstreet - Love's In Need
TTITLE8=Lighter Shade Of Brown - On A Sunday Afternoon
TTITLE9=Tony! Toni! Tone! - Thinking Of You
TTITLE10=The Pasadenas - Tribute (Right On)
TTITLE11=Soul II Soul - Keep On Moving
TTITLE12=Terence Trent D'Arby - If You Let Me Stay
TTITLE13=Eternal - Wat' Cha Gonna Do
TTITLE14=Gabrielle - Out Of Reach
TTITLE15=Barry White - You're The First, The Last, My Everything
TTITLE16=702 - I Still You
TTITLE17=Brian McKnight - Back At One
EXTD=
EXTT0=
EXTT1=
EXTT2=
EXTT3=
EXTT4=
EXTT5=
EXTT6=
EXTT7=
EXTT8=
EXTT9=
EXTT10=
EXTT11=
EXTT12=
EXTT13=
EXTT14=
EXTT15=
EXTT16=
EXTT17=
PLAYORDER=
